<svg width="35" height="35" viewBox="0 0 35 35" fill="none" xmlns="http://www.w3.org/2000/svg">
<path d="M24.4475 26.3043C21.8593 28.4708 18.5255 29.778 14.8907 29.778C6.671 29.778 0 23.107 0 14.889C0 6.671 6.671 0 14.8907 0C23.107 0 29.7798 6.671 29.7798 14.889C29.7798 18.5255 28.4725 21.861 26.306 24.4457L34.6168 32.7582C34.8723 33.0137 35 33.3497 35 33.6875C35 34.7148 34.0602 35 33.6875 35C33.3515 35 33.0155 34.8723 32.7582 34.615L24.4475 26.3043ZM14.8907 2.62675C8.12175 2.62675 2.6285 8.12175 2.6285 14.889C2.6285 21.6563 8.12175 27.1512 14.8907 27.1512C21.6562 27.1512 27.153 21.6563 27.153 14.889C27.153 8.12175 21.6562 2.62675 14.8907 2.62675V2.62675Z" fill="white"/>
</svg>
